<svg width="500" height="500" viewBox="0 0 500 500" fill="none" xmlns="http://www.w3.org/2000/svg">
<rect width="500" height="500" rx="250" fill="white"/>
<path d="M86.2466 281C83.2599 281.56 80.3266 281.8 77.4466 281.72C74.5932 281.667 72.0332 281.173 69.7666 280.24C67.5266 279.28 65.8199 277.747 64.6466 275.64C63.5799 273.667 63.0199 271.667 62.9666 269.64C62.9132 267.587 62.8866 265.267 62.8866 262.68V225.8H73.7666V262.04C73.7666 263.72 73.7799 265.24 73.8066 266.6C73.8599 267.933 74.1399 269 74.6466 269.8C75.6066 271.32 77.1399 272.147 79.2466 272.28C81.3532 272.413 83.6866 272.307 86.2466 271.96V281ZM55.5266 246.2V237.8H86.2466V246.2H55.5266ZM109.61 282.2C105.183 282.2 101.276 281.253 97.8897 279.36C94.5297 277.44 91.8897 274.813 89.9697 271.48C88.0764 268.12 87.1297 264.28 87.1297 259.96C87.1297 255.24 88.063 251.133 89.9297 247.64C91.7964 244.147 94.3697 241.44 97.6497 239.52C100.93 237.573 104.703 236.6 108.97 236.6C113.503 236.6 117.356 237.667 120.53 239.8C123.703 241.933 126.05 244.933 127.57 248.8C129.09 252.667 129.623 257.213 129.17 262.44H118.41V258.44C118.41 254.04 117.703 250.88 116.29 248.96C114.903 247.013 112.623 246.04 109.45 246.04C105.743 246.04 103.01 247.173 101.25 249.44C99.5164 251.68 98.6497 255 98.6497 259.4C98.6497 263.427 99.5164 266.547 101.25 268.76C103.01 270.947 105.583 272.04 108.97 272.04C111.103 272.04 112.93 271.573 114.45 270.64C115.97 269.707 117.13 268.36 117.93 266.6L128.81 269.72C127.183 273.667 124.61 276.733 121.09 278.92C117.596 281.107 113.77 282.2 109.61 282.2ZM95.2897 262.44V254.36H123.93V262.44H95.2897ZM153.242 282.2C148.762 282.2 144.922 281.2 141.722 279.2C138.522 277.2 136.068 274.48 134.362 271.04C132.655 267.6 131.802 263.72 131.802 259.4C131.802 255.027 132.682 251.12 134.442 247.68C136.228 244.24 138.735 241.533 141.962 239.56C145.188 237.587 149.002 236.6 153.402 236.6C158.495 236.6 162.762 237.893 166.202 240.48C169.668 243.04 171.882 246.547 172.842 251L161.962 253.88C161.322 251.64 160.202 249.893 158.602 248.64C157.028 247.387 155.242 246.76 153.242 246.76C150.948 246.76 149.068 247.32 147.602 248.44C146.135 249.533 145.055 251.04 144.362 252.96C143.668 254.853 143.322 257 143.322 259.4C143.322 263.16 144.148 266.213 145.802 268.56C147.482 270.88 149.962 272.04 153.242 272.04C155.695 272.04 157.562 271.48 158.842 270.36C160.122 269.24 161.082 267.64 161.722 265.56L172.842 267.88C171.615 272.467 169.295 276 165.882 278.48C162.468 280.96 158.255 282.2 153.242 282.2ZM206.282 281V260.6C206.282 259.613 206.229 258.36 206.122 256.84C206.016 255.293 205.682 253.747 205.122 252.2C204.562 250.653 203.642 249.36 202.362 248.32C201.109 247.28 199.322 246.76 197.002 246.76C196.069 246.76 195.069 246.907 194.002 247.2C192.936 247.493 191.936 248.067 191.002 248.92C190.069 249.747 189.296 250.973 188.682 252.6C188.096 254.227 187.802 256.387 187.802 259.08L181.562 256.12C181.562 252.707 182.256 249.507 183.642 246.52C185.029 243.533 187.109 241.12 189.882 239.28C192.682 237.44 196.202 236.52 200.442 236.52C203.829 236.52 206.589 237.093 208.722 238.24C210.856 239.387 212.509 240.84 213.682 242.6C214.882 244.36 215.736 246.2 216.242 248.12C216.749 250.013 217.056 251.747 217.162 253.32C217.269 254.893 217.322 256.04 217.322 256.76V281H206.282ZM176.762 281V223.4H186.442V253H187.802V281H176.762ZM244.902 282.2C240.608 282.2 237.022 281.2 234.142 279.2C231.262 277.2 229.088 274.48 227.622 271.04C226.182 267.6 225.462 263.72 225.462 259.4C225.462 255.08 226.182 251.2 227.622 247.76C229.062 244.32 231.182 241.6 233.982 239.6C236.782 237.6 240.235 236.6 244.342 236.6C248.475 236.6 252.075 237.587 255.142 239.56C258.208 241.533 260.582 244.24 262.262 247.68C263.968 251.093 264.822 255 264.822 259.4C264.822 263.72 263.982 267.6 262.302 271.04C260.648 274.48 258.328 277.2 255.342 279.2C252.355 281.2 248.875 282.2 244.902 282.2ZM223.622 281V223.4H234.582V251.4H233.222V281H223.622ZM243.142 272.52C245.488 272.52 247.408 271.933 248.902 270.76C250.395 269.587 251.502 268.013 252.222 266.04C252.942 264.04 253.302 261.827 253.302 259.4C253.302 257 252.928 254.813 252.182 252.84C251.435 250.84 250.275 249.253 248.702 248.08C247.155 246.88 245.168 246.28 242.742 246.28C240.475 246.28 238.635 246.827 237.222 247.92C235.835 249.013 234.822 250.547 234.182 252.52C233.542 254.493 233.222 256.787 233.222 259.4C233.222 262.013 233.542 264.307 234.182 266.28C234.822 268.253 235.862 269.787 237.302 270.88C238.768 271.973 240.715 272.52 243.142 272.52ZM281.623 282.2C278.53 282.2 275.903 281.613 273.743 280.44C271.61 279.24 269.983 277.653 268.863 275.68C267.77 273.68 267.223 271.48 267.223 269.08C267.223 267.08 267.53 265.253 268.143 263.6C268.757 261.947 269.743 260.493 271.103 259.24C272.49 257.96 274.343 256.893 276.663 256.04C278.263 255.453 280.17 254.933 282.383 254.48C284.597 254.027 287.103 253.6 289.903 253.2C292.703 252.773 295.783 252.307 299.143 251.8L295.223 253.96C295.223 251.4 294.61 249.52 293.383 248.32C292.157 247.12 290.103 246.52 287.223 246.52C285.623 246.52 283.957 246.907 282.223 247.68C280.49 248.453 279.277 249.827 278.583 251.8L268.743 248.68C269.837 245.107 271.89 242.2 274.903 239.96C277.917 237.72 282.023 236.6 287.223 236.6C291.037 236.6 294.423 237.187 297.383 238.36C300.343 239.533 302.583 241.56 304.103 244.44C304.957 246.04 305.463 247.64 305.623 249.24C305.783 250.84 305.863 252.627 305.863 254.6V281H296.343V272.12L297.703 273.96C295.597 276.867 293.317 278.973 290.863 280.28C288.437 281.56 285.357 282.2 281.623 282.2ZM283.943 273.64C285.943 273.64 287.623 273.293 288.983 272.6C290.37 271.88 291.463 271.067 292.263 270.16C293.09 269.253 293.65 268.493 293.943 267.88C294.503 266.707 294.823 265.347 294.903 263.8C295.01 262.227 295.063 260.92 295.063 259.88L298.263 260.68C295.037 261.213 292.423 261.667 290.423 262.04C288.423 262.387 286.81 262.707 285.583 263C284.357 263.293 283.277 263.613 282.343 263.96C281.277 264.387 280.41 264.853 279.743 265.36C279.103 265.84 278.623 266.373 278.303 266.96C278.01 267.547 277.863 268.2 277.863 268.92C277.863 269.907 278.103 270.76 278.583 271.48C279.09 272.173 279.797 272.707 280.703 273.08C281.61 273.453 282.69 273.64 283.943 273.64ZM329.144 282.2C323.704 282.2 319.304 280.973 315.944 278.52C312.611 276.04 310.584 272.547 309.864 268.04L320.984 266.36C321.437 268.387 322.437 269.973 323.984 271.12C325.557 272.267 327.544 272.84 329.944 272.84C331.917 272.84 333.437 272.467 334.504 271.72C335.571 270.947 336.104 269.88 336.104 268.52C336.104 267.667 335.891 266.987 335.464 266.48C335.037 265.947 334.077 265.427 332.584 264.92C331.117 264.413 328.824 263.747 325.704 262.92C322.184 262.013 319.371 261 317.264 259.88C315.157 258.76 313.637 257.427 312.704 255.88C311.771 254.307 311.304 252.413 311.304 250.2C311.304 247.427 312.011 245.027 313.424 243C314.837 240.947 316.824 239.373 319.384 238.28C321.971 237.16 325.011 236.6 328.504 236.6C331.891 236.6 334.891 237.12 337.504 238.16C340.117 239.2 342.224 240.68 343.824 242.6C345.451 244.52 346.451 246.787 346.824 249.4L335.704 251.4C335.517 249.8 334.824 248.533 333.624 247.6C332.424 246.667 330.797 246.12 328.744 245.96C326.744 245.827 325.131 246.093 323.904 246.76C322.704 247.427 322.104 248.387 322.104 249.64C322.104 250.387 322.357 251.013 322.864 251.52C323.397 252.027 324.477 252.547 326.104 253.08C327.757 253.613 330.264 254.307 333.624 255.16C336.904 256.013 339.531 257.013 341.504 258.16C343.504 259.28 344.957 260.64 345.864 262.24C346.771 263.813 347.224 265.72 347.224 267.96C347.224 272.387 345.624 275.867 342.424 278.4C339.224 280.933 334.797 282.2 329.144 282.2ZM377.934 281C374.947 281.56 372.014 281.8 369.134 281.72C366.281 281.667 363.721 281.173 361.454 280.24C359.214 279.28 357.507 277.747 356.334 275.64C355.267 273.667 354.707 271.667 354.654 269.64C354.601 267.587 354.574 265.267 354.574 262.68V225.8H365.454V262.04C365.454 263.72 365.467 265.24 365.494 266.6C365.547 267.933 365.827 269 366.334 269.8C367.294 271.32 368.827 272.147 370.934 272.28C373.041 272.413 375.374 272.307 377.934 271.96V281ZM347.214 246.2V237.8H377.934V246.2H347.214ZM384.361 231.8V222.2H395.241V231.8H384.361ZM384.361 281V237.8H395.241V281H384.361ZM422.273 282.2C417.793 282.2 413.953 281.2 410.753 279.2C407.553 277.2 405.099 274.48 403.393 271.04C401.686 267.6 400.833 263.72 400.833 259.4C400.833 255.027 401.713 251.12 403.473 247.68C405.259 244.24 407.766 241.533 410.993 239.56C414.219 237.587 418.033 236.6 422.433 236.6C427.526 236.6 431.793 237.893 435.233 240.48C438.699 243.04 440.913 246.547 441.873 251L430.993 253.88C430.353 251.64 429.233 249.893 427.633 248.64C426.059 247.387 424.273 246.76 422.273 246.76C419.979 246.76 418.099 247.32 416.633 248.44C415.166 249.533 414.086 251.04 413.393 252.96C412.699 254.853 412.353 257 412.353 259.4C412.353 263.16 413.179 266.213 414.833 268.56C416.513 270.88 418.993 272.04 422.273 272.04C424.726 272.04 426.593 271.48 427.873 270.36C429.153 269.24 430.113 267.64 430.753 265.56L441.873 267.88C440.646 272.467 438.326 276 434.913 278.48C431.499 280.96 427.286 282.2 422.273 282.2Z" fill="#1E1E1E"/>
</svg>
